<svg width="30" height="30" viewBox="0 0 30 30" fill="none" xmlns="http://www.w3.org/2000/svg">
<path d="M22.3444 21.9562C21.8379 21.9573 21.3363 21.8582 20.8684 21.6645C20.4005 21.4707 19.9756 21.1863 19.6181 20.8275L15.6806 16.89C15.5412 16.7576 15.3563 16.6837 15.1641 16.6837C14.9718 16.6837 14.7869 16.7576 14.6475 16.89L10.695 20.8425C10.3377 21.2014 9.91281 21.486 9.44486 21.6797C8.97692 21.8735 8.47522 21.9726 7.96875 21.9712H7.1925L12.18 26.9587C13.7363 28.515 16.2619 28.515 17.8181 26.9587L22.8188 21.9562H22.3444ZM7.96875 8.02873C9 8.02873 9.9675 8.42998 10.695 9.15748L14.6475 13.11C14.7154 13.178 14.7961 13.232 14.8849 13.2688C14.9737 13.3056 15.0689 13.3246 15.165 13.3246C15.2611 13.3246 15.3563 13.3056 15.4451 13.2688C15.5339 13.232 15.6146 13.178 15.6825 13.11L19.62 9.17248C19.9771 8.81376 20.4017 8.52931 20.8693 8.33558C21.3369 8.14184 21.8382 8.04265 22.3444 8.04373H22.8188L17.8181 3.0431C17.0703 2.29578 16.0563 1.87598 14.9991 1.87598C13.9418 1.87598 12.9278 2.29578 12.18 3.0431L7.1925 8.0306L7.96875 8.02873Z" fill="#85B6FF"/>
<path d="M26.9569 12.18L23.9344 9.15747C23.8665 9.18534 23.794 9.19997 23.7206 9.2006H22.3462C21.6356 9.2006 20.94 9.48935 20.4394 9.99185L16.5019 13.9293C16.3267 14.1054 16.1186 14.2451 15.8893 14.3404C15.66 14.4357 15.4142 14.4848 15.1659 14.4848C14.9176 14.4848 14.6718 14.4357 14.4425 14.3404C14.2133 14.2451 14.0051 14.1054 13.83 13.9293L9.87748 9.97497C9.37038 9.46996 8.6844 9.18559 7.96873 9.18372H6.28123C6.21127 9.18317 6.14201 9.16982 6.07685 9.14435L3.0431 12.18C1.48685 13.7362 1.48685 16.2618 3.0431 17.82L6.07685 20.8537C6.14129 20.8278 6.20991 20.8138 6.27935 20.8125H7.96873C8.68123 20.8125 9.37498 20.5256 9.87748 20.0231L13.8281 16.0687C14.1886 15.7255 14.6672 15.5341 15.165 15.5341C15.6627 15.5341 16.1414 15.7255 16.5019 16.0687L20.4394 20.0062C20.94 20.5087 21.6356 20.7956 22.3462 20.7956H23.7206C23.7956 20.7956 23.8687 20.8143 23.9344 20.8406L26.9569 17.8181C28.5131 16.2618 28.5131 13.7362 26.9569 12.18Z" fill="#85B6FF"/>
</svg>
